<?xml version="1.0" encoding="UTF-8"?>
<svg width="512" height="512" enable-background="new 0 0 110 110" viewBox="0 0 110 110"
	xmlns="http://www.w3.org/2000/svg">
	<path d="m87.636 29.222h-65.272c-1.1954 0-2.1644 0.96906-2.1644 2.1645v42.35c0 1.1954 0.96906 2.1644 2.1644 2.1644h65.272c1.1954 0 2.1645-0.96906 2.1645-2.1644v-42.35c-1.9e-6 -1.1954-0.96913-2.1645-2.1645-2.1645z" fill="#3a556a"/>
	<path transform="matrix(0 1 -1 0 106.46 -3.543)" d="m37.889 21.691h34.222v59.531h-34.222z" fill="#ebf0f3"/>
	<path d="m15.455 75.801v2.1821c0 1.5434 1.2512 2.7946 2.7946 2.7946h73.501c1.5434 0 2.7946-1.2512 2.7946-2.7946v-2.1821z" fill="#2f4859"/>
	<path d="m55 70.246c-0.95222 0-1.7241 0.77195-1.7241 1.7241 0 0.95222 0.77188 1.7241 1.7241 1.7241 0.95215 0 1.724-0.77188 1.724-1.7241 0-0.95215-0.77188-1.7241-1.724-1.7241z" fill="#2f4859"/>
	<path d="m42.259 47.765 5.1563 5.1452c-1.3801 1.6782-2.1972 3.8202-2.1972 6.1609h-7.254c0-4.3392 1.623-8.3029 4.2949-11.306z" fill="#fcd462"/>
	<path d="m54.393 42.046v7.2651c-2.3849 0.14354-4.5489 1.1483-6.161 2.7161l-5.1452-5.1341c2.9259-2.8707 6.9007-4.6925 11.306-4.8471z" fill="#44c4a1"/>
	<path d="m66.903 46.893-5.123 5.1231c-1.6341-1.5679-3.7872-2.5616-6.1831-2.7051v-7.2651c4.3944 0.15459 8.3692 1.9763 11.306 4.8471z" fill="#27a2db"/>
	<path d="m72.037 59.071h-7.254c0-2.3518-0.81703-4.4938-2.1861-6.172l5.1341-5.1342c2.683 3.0032 4.3061 6.967 4.3061 11.306z" fill="#e56353"/>
	<path d="m55.154 52.149c-0.025204-0.17771-0.28189-0.17771-0.30709 0l-1.4177 9.9789c-0.044071 0.31053 0.19691 0.58818 0.51061 0.58818h2.1213c0.31363 0 0.55468-0.27765 0.51054-0.58818z" fill="#2f4859"/>
	<path d="m55 56.893c-1.176 0-2.1293 0.95336-2.1293 2.1293 0 1.1761 0.95336 2.1294 2.1293 2.1294 1.1761 0 2.1294-0.95336 2.1294-2.1294 0-1.176-0.95336-2.1293-2.1294-2.1293z" fill="#3a556a"/>
</svg>
