<?xml version="1.0" encoding="UTF-8"?>
<svg width="512" height="512" enable-background="new 0 0 32 32" viewBox="0 0 32 32"
	xmlns="http://www.w3.org/2000/svg">
	<path d="m26 32h-20c-3.314 0-6-2.686-6-6v-20c0-3.314 2.686-6 6-6h20c3.314 0 6 2.686 6 6v20c0 3.314-2.686 6-6 6z" fill="#ffe6e2"/>
	<circle cx="16" cy="16" r="8" fill="#fc573b"/>
	<path d="m18.616 18c-.193-1.012-.961-1.815-1.949-2.072v-3.928c0-.368-.298-.667-.667-.667-.368 0-.667.299-.667.667v3.928c-.988.257-1.756 1.06-1.949 2.072h-3.743c-.199-.632-.307-1.303-.307-2 0-3.676 2.991-6.667 6.667-6.667s6.667 2.991 6.667 6.667c0 .697-.108 1.368-.307 2z" fill="#fd907e"/>
</svg>
