<?xml version="1.0" encoding="UTF-8"?>
<!DOCTYPE svg  PUBLIC '-//W3C//DTD SVG 1.1//EN'  'http://www.w3.org/Graphics/SVG/1.1/DTD/svg11.dtd'>
<svg enable-background="new 0 0 428.974 428.975" version="1.1" viewBox="0 0 428.97 428.98" xml:space="preserve"
  xmlns="http://www.w3.org/2000/svg">
  <path d="m414.1 373.87-106.25-56.188-4.907-15.332c-1.469-5.137-3.794-10.273-8.576-11.623-1.519-0.428-3.441-3.201-3.689-5.137l-2.836-29.813c-0.156-2.553 0.868-4.844 2.216-6.453 8.14-9.754 12.577-21.051 14.454-33.967 0.944-6.494 4.323-12.483 6.059-18.879l6.812-35.649c0.711-4.681 0.573-8.289-4.659-10.103-1.443-0.503-2.699-2.894-2.699-6.479l0.069-67.264c-1.111-16.28-9.731-28.869-21.957-37.631-23.354-16.739-65.175-8.977-51.526-36.281 0.806-1.607 0.549-4.399-5.062-2.335-20.936 7.703-76.701 28.057-90.71 38.616-12.538 9.449-20.844 21.351-21.957 37.631l0.069 67.264c0 2.96-1.255 5.976-2.7 6.479-5.233 1.813-5.37 5.422-4.659 10.103l6.814 35.649c1.732 6.396 5.113 12.386 6.058 18.879 1.875 12.916 6.315 24.213 14.453 33.967 1.347 1.609 2.372 3.9 2.216 6.453l-2.836 29.813c-0.249 1.936-2.174 4.709-3.69 5.137-4.783 1.35-7.109 6.486-8.577 11.623l-4.909 15.332-106.25 56.188c-2.742 1.449-4.457 4.297-4.457 7.397v39.343c0 4.621 3.748 8.368 8.37 8.368h391.4c4.622 0 8.37-3.747 8.37-8.368v-39.343c-2e-3 -3.1-1.717-5.948-4.458-7.397z"/>
</svg>
