<?xml version="1.0" encoding="UTF-8"?>
<svg enable-background="new 0 0 504.123 504.123" version="1.1" viewBox="0 0 504.12 504.12" xml:space="preserve"
  xmlns="http://www.w3.org/2000/svg">
  <rect x="25.994" y="78.769" width="452.14" height="311.93" fill="#E1E6E7"/>
  <path d="m478.13 398.57h-452.14c-4.726 0-7.877-3.151-7.877-7.877v-311.93c0-4.726 3.151-7.877 7.877-7.877h452.14c4.726 0 7.877 3.151 7.877 7.877v311.93c0 4.727-3.151 7.877-7.877 7.877zm-444.26-15.754h436.38v-296.17h-436.38v296.17z" fill="#183651"/>
  <rect x="57.502" y="110.28" width="389.12" height="280.42" fill="#fff"/>
  <polygon points="496.25 368.64 496.25 402.51 447.41 440.32 56.714 440.32 7.877 402.51 7.877 368.64 194.56 368.64 194.56 390.7 309.56 390.7 309.56 368.64" fill="#CFD0D1"/>
  <path d="m447.41 448.2h-390.7c-1.575 0-3.151-0.788-4.726-1.575l-48.837-37.81c-1.576-1.575-3.151-3.938-3.151-6.301v-33.083c0-4.726 3.151-7.877 7.877-7.877h186.68c4.726 0 7.877 3.151 7.877 7.877v14.178h99.249v-14.178c0-4.726 3.151-7.877 7.877-7.877h186.68c4.726 0 7.877 3.151 7.877 7.877v33.083c0 2.363-0.788 4.726-3.151 6.302l-48.837 37.809c-1.575 0.787-3.15 1.575-4.726 1.575zm-388.33-15.754h385.97l43.323-33.871v-21.268h-170.93v14.178c0 4.726-3.151 7.877-7.877 7.877h-115c-4.726 0-7.877-3.151-7.877-7.877v-14.178h-170.93v21.268l43.323 33.871z" fill="#183651"/>
  <path d="m273.33 319.02 85.858-117.37-123.67 77.982c-15.754 9.452-18.905 30.72-6.302 44.111 12.604 12.603 33.871 11.027 44.111-4.727z" fill="#F06151"/>
  <path d="m252.06 187.47c-66.166 0-120.52 52.775-122.09 118.15h39.385c2.363-44.111 38.597-78.769 82.708-78.769 10.24 0 19.692 1.575 28.357 5.514l38.597-24.418c-18.906-12.604-41.749-20.481-66.955-20.481z" fill="#2CA0DA"/>
  <path d="m374.15 306.41c-0.788-25.206-9.452-48.049-22.843-66.954l-25.206 34.658c4.726 10.24 7.877 21.268 8.665 33.083h39.385v-0.787z" fill="#4FBF9F"/>
  <g fill="#183651">
    <rect x="81.132" y="136.27" width="15.754" height="15.754"/>
    <rect x="125.24" y="136.27" width="15.754" height="15.754"/>
    <rect x="170.14" y="136.27" width="15.754" height="15.754"/>
    <rect x="319.02" y="136.27" width="15.754" height="15.754"/>
    <rect x="363.13" y="136.27" width="15.754" height="15.754"/>
    <rect x="407.24" y="136.27" width="15.754" height="15.754"/>
  </g>
</svg>
