<?xml version="1.0" encoding="UTF-8"?>
<svg
	xmlns="http://www.w3.org/2000/svg" enable-background="new 0 0 512 512" version="1.1" viewBox="0 0 512 512" xml:space="preserve">
	<path d="m441.44 133.2c-17.999-58.2-65.4-105.6-123.6-123.6-20.4-6.301-41.4-9.6-61.8-9.6-41.7 0-81.899 12.9-115.5 38.101-49.802 36.599-79.501 95.099-79.501 156.9 0 42.599 13.5 83.101 39 117l156 200 156-200c38.099-51.001 48.9-116.1 29.4-178.8zm-185.4 166.8c-57.9 0-105-47.1-105-105s47.1-105 105-105 105 47.1 105 105-47.1 105-105 105z" fill="#FF3636"/>
	<path d="m412.04 312-156 200v-212c57.9 0 105-47.1 105-105s-47.1-105-105-105v-90c20.4 0 41.4 3.3 61.8 9.6 58.2 17.999 105.6 65.4 123.6 123.6 19.5 62.701 8.699 127.8-29.4 178.8z" fill="#F40000"/>
</svg>